<?xml version="1.0" standalone="no"?>
<!DOCTYPE svg PUBLIC "-//W3C//DTD SVG 20010904//EN"
 "http://www.w3.org/TR/2001/REC-SVG-20010904/DTD/svg10.dtd">
<svg version="1.0" xmlns="http://www.w3.org/2000/svg"
 width="945.000000pt" height="945.000000pt" viewBox="0 0 945.000000 945.000000"
 preserveAspectRatio="xMidYMid meet">

<g transform="translate(0.000000,945.000000) scale(0.100000,-0.100000)"
fill="#000000" stroke="none">
<path d="M4390 7164 c-19 -2 -91 -9 -160 -14 -164 -14 -421 -54 -590 -92 -879
-197 -1516 -618 -1686 -1115 -45 -134 -60 -256 -45 -376 48 -376 318 -699 813
-975 l57 -31 10 52 c62 300 101 806 82 1054 -13 169 -25 232 -57 295 -32 63
-62 82 -120 75 -151 -17 -344 -289 -344 -484 0 -44 5 -58 25 -78 28 -29 86
-33 141 -10 42 17 62 11 70 -22 27 -106 -83 -274 -212 -323 -85 -31 -138 -15
-187 59 -58 87 -74 238 -38 361 56 196 211 456 365 612 168 170 379 251 477
185 98 -66 163 -270 189 -597 10 -121 7 -496 -5 -603 -7 -61 -21 -75 117 123
126 180 238 319 355 441 136 141 166 161 222 151 23 -4 42 -10 42 -14 -1 -5
-1 -23 -1 -42 0 -30 -8 -39 -75 -90 -275 -211 -520 -592 -665 -1034 -32 -98
-61 -195 -65 -214 l-7 -36 58 -21 c153 -58 402 -125 612 -166 526 -101 1174
-113 1722 -30 992 149 1781 605 1984 1146 94 250 65 444 -85 583 -148 137
-403 206 -763 206 -705 0 -1758 -274 -2444 -637 l-67 -35 40 37 c55 49 212
162 314 224 561 344 1415 599 2210 661 163 12 341 13 436 0 38 -5 71 -7 73 -5
2 2 -34 35 -80 75 -116 99 -296 217 -459 300 -159 81 -156 80 -405 55 -202
-21 -316 -46 -462 -100 -134 -49 -162 -53 -186 -29 -32 31 -12 65 56 100 121
62 91 58 670 67 l127 2 -97 38 c-53 21 -163 58 -243 83 l-147 45 -51 -21
c-114 -44 -210 -100 -357 -205 -116 -83 -248 -145 -311 -145 l-24 0 33 46 c70
98 167 156 373 224 72 23 144 50 160 58 17 9 57 23 90 32 l60 17 -88 20 -87
20 -129 -67 c-140 -73 -232 -134 -360 -237 -176 -143 -287 -212 -408 -254 -85
-29 -89 -25 -38 42 87 112 156 156 505 323 52 25 133 68 180 95 47 28 117 62
155 75 41 14 64 27 55 30 -57 21 -407 69 -619 86 -122 9 -624 12 -711 4z m805
-297 c-289 -148 -340 -183 -530 -367 -66 -64 -140 -130 -165 -147 -45 -30
-144 -83 -155 -83 -13 0 79 159 117 203 45 53 123 110 275 200 164 97 308 171
408 210 123 48 228 85 240 86 6 0 -80 -46 -190 -102z m-210 4 c-11 -11 -101
-66 -200 -122 -226 -128 -286 -169 -356 -238 -68 -69 -100 -115 -175 -255 -40
-75 -78 -129 -119 -170 -68 -70 -217 -174 -223 -156 -6 16 46 176 75 233 46
91 276 308 453 427 49 34 533 292 560 299 2 0 -4 -8 -15 -18z m709 -266 c96
-31 122 -35 211 -35 107 0 165 -7 165 -20 0 -11 -66 -20 -188 -25 -56 -3 -139
-12 -185 -20 -108 -19 -267 -19 -341 0 -57 15 -116 43 -116 56 0 11 96 58 151
74 78 22 173 12 303 -30z m-444 -135 c76 -20 97 -22 205 -15 191 13 295 10
335 -8 l35 -15 -90 -1 c-49 -1 -151 -10 -225 -21 -476 -72 -545 -78 -638 -55
-89 21 -112 36 -92 60 20 24 82 53 148 70 76 19 214 13 322 -15z m185 -140
c-33 -15 -541 -127 -675 -149 -69 -11 -178 -25 -242 -31 -101 -10 -121 -9
-147 5 -17 8 -31 20 -31 25 0 17 116 87 183 110 89 32 253 39 333 14 74 -22
178 -22 309 0 86 14 227 32 275 34 9 0 7 -3 -5 -8z m-570 -214 c-137 -46 -344
-124 -460 -174 -341 -146 -445 -171 -445 -108 0 33 24 60 118 137 138 111 148
114 337 114 151 0 167 2 285 34 186 50 320 79 370 80 36 1 -5 -16 -205 -83z
m2335 -266 c0 -29 -79 -476 -95 -541 -42 -164 -119 -256 -261 -309 -66 -24
-169 -42 -202 -33 -26 6 -26 6 4 111 l15 52 62 0 c93 0 157 34 191 103 14 28
26 62 26 75 0 23 -1 22 -27 -9 -34 -40 -96 -68 -149 -69 -141 -1 -168 206 -53
401 86 148 243 237 422 238 60 1 67 -1 67 -19z m-673 -155 c29 -20 46 -84 38
-143 -8 -59 -64 -371 -70 -392 -3 -10 -35 -23 -91 -37 l-86 -21 5 42 c3 22 17
110 31 193 21 116 24 157 16 173 -15 27 -36 25 -69 -8 -39 -39 -66 -117 -95
-282 -14 -79 -29 -147 -33 -151 -9 -9 -166 -50 -171 -45 -2 2 15 105 37 227
22 123 45 254 51 290 l12 67 80 20 80 20 -7 -46 -7 -47 30 41 c68 93 189 141
249 99z m-1017 -37 c0 -14 -32 -163 -35 -166 -3 -3 -44 -15 -91 -28 -48 -13
-88 -25 -89 -26 -2 -2 -26 -133 -54 -293 -29 -159 -55 -301 -60 -315 -6 -21
-20 -27 -94 -46 -48 -12 -87 -20 -87 -17 0 2 25 142 55 310 31 168 54 308 51
310 -2 2 -41 -5 -86 -17 -45 -12 -83 -20 -85 -18 -1 2 5 41 14 88 l16 85 255
67 c229 60 290 73 290 66z m425 -359 c-62 -347 -47 -310 -130 -331 -39 -10
-73 -18 -78 -18 -4 0 -4 18 -1 41 l7 40 -60 -60 c-97 -97 -203 -115 -240 -41
-7 14 -13 52 -13 85 0 59 61 419 72 431 4 3 45 16 92 28 l85 23 -5 -26 c-2
-14 -16 -90 -30 -169 -38 -214 -27 -267 44 -207 42 35 66 105 97 282 15 81 28
149 30 151 2 2 41 14 87 26 60 17 84 20 86 11 2 -6 -18 -126 -43 -266z m-1621
29 c-4 -18 -37 -198 -74 -401 -37 -202 -70 -370 -73 -374 -4 -3 -45 -16 -92
-29 l-86 -23 6 32 c3 18 16 88 29 157 15 84 19 126 12 127 -6 2 -58 -9 -116
-25 l-105 -27 -29 -162 -29 -161 -85 -22 c-46 -11 -87 -19 -89 -16 -7 6 136
789 145 798 9 9 164 49 170 43 2 -2 -7 -68 -22 -146 -14 -78 -24 -144 -22
-146 7 -7 211 50 221 62 6 7 21 76 35 154 l24 141 41 11 c22 6 60 17 85 24 62
19 62 19 54 -17z m571 -70 c-29 -134 -67 -363 -72 -441 -7 -109 -5 -106 -88
-126 -27 -7 -58 -14 -67 -17 -14 -4 -17 3 -20 36 l-3 42 -32 -46 c-37 -52
-113 -96 -167 -96 -41 0 -87 35 -106 80 -18 44 -7 181 20 252 76 203 262 333
483 337 55 1 57 0 52 -21z"/>
<path d="M6934 5681 c-99 -60 -147 -282 -61 -281 52 1 89 59 113 177 8 43 17
88 20 101 3 18 0 22 -18 22 -13 0 -37 -9 -54 -19z"/>
<path d="M4630 5092 c-39 -19 -94 -95 -110 -150 -15 -55 -13 -127 5 -142 48
-39 106 39 136 182 28 140 28 140 -31 110z"/>
<path d="M4788 3126 c-60 -22 -84 -42 -109 -93 -24 -47 -24 -53 -27 -400 -4
-385 2 -464 42 -523 42 -64 78 -74 262 -78 103 -2 177 1 204 8 56 15 114 72
129 125 6 23 11 128 11 253 l0 212 -155 0 -155 0 0 -95 0 -95 35 0 35 0 0 -90
c0 -77 -3 -93 -20 -110 -24 -24 -77 -26 -108 -4 -22 15 -22 15 -22 349 0 334
0 334 22 349 31 22 84 20 108 -4 16 -16 20 -33 20 -85 l0 -65 121 0 122 0 -5
113 c-5 123 -16 157 -68 200 -17 15 -47 31 -68 37 -55 15 -329 12 -374 -4z"/>
<path d="M6548 3126 c-61 -22 -84 -42 -109 -93 -24 -47 -24 -53 -27 -410 -4
-391 2 -453 44 -514 44 -64 76 -73 265 -77 225 -5 273 10 322 101 21 41 22 52
25 415 4 398 -1 450 -42 513 -43 64 -78 74 -271 76 -125 2 -180 -1 -207 -11z
m242 -196 c19 -19 20 -33 20 -345 0 -312 -1 -326 -20 -345 -23 -23 -68 -26
-96 -6 -18 14 -19 29 -19 351 0 322 1 337 19 351 28 20 73 17 96 -6z"/>
<path d="M7348 3130 c-55 -17 -97 -51 -120 -98 -23 -46 -23 -54 -26 -400 -4
-384 3 -463 42 -522 44 -67 75 -75 292 -75 l190 0 42 28 c23 15 52 46 64 70
23 41 23 49 26 416 3 398 -1 449 -42 512 -43 64 -78 74 -271 76 -93 1 -182 -2
-197 -7z m232 -200 c19 -19 20 -33 20 -343 0 -276 -2 -326 -16 -345 -18 -26
-69 -30 -100 -8 -18 14 -19 29 -19 351 0 322 1 337 19 351 28 20 73 17 96 -6z"/>
<path d="M790 2585 l0 -545 130 0 130 0 0 240 0 241 63 -3 62 -3 3 -237 2
-238 125 0 125 0 0 545 0 545 -125 0 -125 0 0 -210 0 -210 -65 0 -65 0 0 210
0 210 -130 0 -130 0 0 -545z"/>
<path d="M1696 3118 c-6 -17 -157 -1049 -156 -1065 0 -10 32 -13 125 -13 69 0
125 1 125 3 0 1 7 58 15 127 8 69 15 128 15 133 0 6 160 11 160 5 0 -2 7 -59
15 -128 8 -69 15 -128 15 -132 0 -5 59 -8 131 -8 l131 0 -4 28 c-2 15 -40 260
-83 545 l-79 517 -203 0 c-154 0 -205 -3 -207 -12z m257 -585 l5 -43 -60 0
c-52 0 -59 2 -54 18 2 9 7 44 11 77 4 33 8 74 10 90 2 17 9 75 15 130 21 196
22 195 46 -25 12 -113 24 -224 27 -247z"/>
<path d="M2260 3035 l0 -95 85 0 85 0 0 -450 0 -450 130 0 130 0 0 450 0 450
85 0 85 0 0 95 0 95 -300 0 -300 0 0 -95z"/>
<path d="M2952 2658 c3 -466 3 -474 25 -514 51 -95 117 -118 318 -113 116 4
135 7 175 29 35 20 51 38 75 85 l30 60 3 463 3 462 -120 0 -120 0 -3 -440 c-2
-340 -6 -442 -16 -452 -7 -7 -31 -13 -53 -13 -71 0 -69 -15 -69 472 l0 433
-125 0 -126 0 3 -472z"/>
<path d="M3740 2585 l0 -545 115 0 115 0 -4 38 c-6 47 -16 820 -11 807 3 -5
43 -181 90 -390 47 -209 91 -397 96 -417 l10 -38 179 0 180 0 0 545 0 545
-117 0 -116 0 6 -412 c3 -227 2 -404 -2 -393 -4 11 -48 197 -97 412 l-89 393
-177 0 -178 0 0 -545z"/>
<path d="M5830 2585 l0 -545 125 0 125 0 0 215 0 215 100 0 100 0 0 95 0 94
-97 3 -98 3 0 135 0 135 113 3 112 3 0 94 0 95 -240 0 -240 0 0 -545z"/>
<path d="M8010 2586 l0 -546 203 0 c434 0 454 27 445 603 -6 318 -14 367 -73
422 -54 52 -88 58 -342 62 l-233 5 0 -546z m374 334 c15 -15 21 -584 6 -639
-9 -35 -15 -41 -44 -46 -18 -4 -44 -5 -57 -3 l-24 3 -3 340 c-1 187 0 346 3
354 4 10 18 12 57 8 28 -4 56 -11 62 -17z"/>
</g>
</svg>
